<?xml version="1.0" encoding="utf-8"?>
<!-- Generator: Adobe Illustrator 21.0.2, SVG Export Plug-In . SVG Version: 6.00 Build 0)  -->
<svg version="1.1" id="Layer_1" xmlns="http://www.w3.org/2000/svg" xmlns:xlink="http://www.w3.org/1999/xlink" x="0px" y="0px"
	 viewBox="0 0 512 512" style="enable-background:new 0 0 512 512;" xml:space="preserve">
<style type="text/css">
	.st0{fill:#FFFFFF;}
</style>
<g>
	<rect x="56" y="384.2" class="st0" width="160" height="15.7"/>
	<rect x="248.2" y="384" class="st0" width="15.7" height="48"/>
	<rect x="296.2" y="384" class="st0" width="15.7" height="48"/>
	<rect x="344.2" y="384" class="st0" width="15.7" height="48"/>
	<rect x="392.2" y="384" class="st0" width="15.7" height="48"/>
	<rect x="440.2" y="384" class="st0" width="15.7" height="48"/>
	<path class="st0" d="M503.8,480.2V243.3l-112.7,56.3L375.4,16.2h-78.8L280.5,275l-49.5,24.8L215.3,88.2h-78.5L120.6,275L8.2,331.2
		v149H0v15.7h512v-15.7L503.8,480.2L503.8,480.2z M311.4,31.8h49.2l0.9,16.3h-51.2L311.4,31.8z M309.4,63.8h53l0.9,16.3h-54.9
		L309.4,63.8z M307.4,95.8h56.8l11.7,211.5l-32.1,16v-80l-47.2,23.6L307.4,95.8z M151.2,103.8h49.5l1.2,16.3h-52.2L151.2,103.8z
		 M148.4,135.8h54.7l1.2,16.3H147L148.4,135.8z M145.6,167.8h59.9l10.3,139.5l-32,16v-80L137,266.7L145.6,167.8z M56.2,480.2H23.8
		v-16.3h32.3L56.2,480.2L56.2,480.2z M200.2,480.2H71.8v-56.3h128.3V480.2z M488.2,480.2H215.8v-16.3h272.3V480.2z M488.2,448.2
		H215.8v-40H56.2v40H23.8V340.8l144.3-72.2v80l160-80v80l160-80L488.2,448.2L488.2,448.2z"/>
</g>
</svg>
