<?xml version="1.0" encoding="utf-8"?>
<!-- Generator: Adobe Illustrator 21.0.2, SVG Export Plug-In . SVG Version: 6.00 Build 0)  -->
<svg version="1.1" id="Layer_1" xmlns="http://www.w3.org/2000/svg" xmlns:xlink="http://www.w3.org/1999/xlink" x="0px" y="0px"
	 viewBox="0 0 512 512" style="enable-background:new 0 0 512 512;" xml:space="preserve">
<style type="text/css">
	.st0{fill:#FFFFFF;}
</style>
<g>
	<g>
		<g>
			<path class="st0" d="M509.6,488.5l-7.4-85c-3-34.2-27-63-59.7-71.5l-99.6-26c-2.6-0.7-5.4,0-7.4,1.9c-0.6,0.6-1.2,1.1-1.8,1.7
				l-20.2-10.8l-4.9-16.7c20.5-14.3,36.9-37.7,42.3-61.2c5.5-4.4,9.9-10,13.1-16.2c5.6-3.6,9.3-9.9,9.3-17V169
				c0-2.9-0.6-5.6-1.7-8.1h2.9c9,0,16.3-7.3,16.3-16.3v-9c0-8.1-5.9-14.7-13.6-16.1v-3.2c0-25-9-49.1-25.2-68
				c-14.7-17-34.5-28.9-56.2-33.7c-0.7-3-2.1-5.9-4.2-8.3C288,2.3,282.8,0,277.3,0h-42.6c-5.5,0-10.7,2.3-14.3,6.4
				c-2.1,2.4-3.5,5.3-4.2,8.3c-21.8,4.9-41.5,16.7-56.2,33.7c-16.3,18.9-25.2,43-25.2,68v3.2c-7.7,1.3-13.6,8-13.6,16.1v9
				c0,9,7.3,16.3,16.3,16.3h2.9c-1.1,2.5-1.7,5.2-1.7,8.1v18.6c0,7.1,3.7,13.4,9.3,17c3.2,6.3,7.6,11.8,13.1,16.2
				c5.3,23.6,21.8,47.1,42.3,61.4l-4.9,16.5l-20.2,10.8c-0.6-0.6-1.2-1.1-1.8-1.7c-2-1.9-4.7-2.6-7.4-1.9l-99.6,26
				c-32.8,8.5-56.8,37.3-59.7,71.5l-7.4,85c-0.5,6,1.5,12,5.6,16.5c4.1,4.5,9.9,7,16,7h71.5h55.8h209.5h55.8H488
				c6.1,0,11.9-2.6,16-7C508.1,500.5,510.1,494.5,509.6,488.5z M357.7,187.6c0,1.9-1.2,3.5-2.8,4.3c-0.6,0.3-1.2,0.4-1.9,0.4h-0.3
				v-27.9h0.3c0.3,0,0.6,0,0.9,0.1c0.2,0,0.3,0.1,0.4,0.1c0.1,0,0.3,0.1,0.4,0.1c0.2,0.1,0.4,0.2,0.6,0.3c0.1,0,0.1,0.1,0.2,0.1
				c0.2,0.2,0.4,0.3,0.7,0.5c0.9,0.8,1.5,2,1.5,3.4V187.6z M281.9,112.2c0.4-0.5,0.7-1.1,1-1.6c0.1-0.1,0.1-0.2,0.2-0.3
				c0.3-0.6,0.6-1.2,0.9-1.8c0,0,0,0,0,0c0.3-0.6,0.5-1.2,0.7-1.9c0-0.1,0.1-0.2,0.1-0.4c0.2-0.6,0.4-1.3,0.5-1.9
				c0-0.1,0.1-0.2,0.1-0.4c0.2-0.7,0.3-1.4,0.4-2c0,0,0-0.1,0-0.1l9-71.2c39.1,9.9,66.7,44.8,66.7,85.9v2.9h-87
				c0.3-0.2,0.6-0.4,1-0.7c0,0,0.1-0.1,0.1-0.1c0.5-0.4,1-0.8,1.5-1.2c0.1-0.1,0.2-0.2,0.3-0.3c0.5-0.4,0.9-0.8,1.4-1.3
				c0.1-0.1,0.2-0.2,0.3-0.3c0.4-0.5,0.9-0.9,1.3-1.4c0,0,0-0.1,0.1-0.1c0.4-0.5,0.8-1,1.2-1.6C281.7,112.4,281.8,112.3,281.9,112.2
				z M232.2,16.7c0.4-0.4,1.2-1.1,2.5-1.1h42.6c1.3,0,2.2,0.7,2.5,1.1c0.3,0.4,0.9,1.2,0.7,2.4l-0.1,1.1v0l-1.9,14.7l-8.2,64.8
				c-0.1,0.7-0.3,1.4-0.6,2.1c-1.4,3.6-5,6.1-9.1,6.1h-9.5c-4.8,0-9-3.5-9.7-8.1l-10.1-79.5c0,0,0,0,0,0l-0.1-1
				C231.3,18,231.8,17.1,232.2,16.7z M159.3,192.3H159v0c-0.6,0-1.3-0.1-1.9-0.4c-1.6-0.7-2.8-2.4-2.8-4.3V169
				c0-1.3,0.5-2.4,1.4-3.3c0,0,0,0,0.1-0.1c0,0,0,0,0.1,0c0.2-0.2,0.4-0.4,0.7-0.5c0.1,0,0.1-0.1,0.2-0.1c0.2-0.1,0.4-0.2,0.6-0.3
				c0.1,0,0.2-0.1,0.4-0.1c0.2-0.1,0.3-0.1,0.5-0.1c0.3-0.1,0.6-0.1,0.9-0.1h0.3L159.3,192.3L159.3,192.3z M150.4,145.3h-12.8
				c-0.4,0-0.7-0.3-0.7-0.7v-9c0-0.4,0.3-0.7,0.7-0.7c0.9,0,1.7-0.2,2.5-0.4c0.8,0.3,1.6,0.4,2.5,0.4h40.8c4.3,0,7.8-3.5,7.8-7.8
				s-3.5-7.8-7.8-7.8h-33v-2.9c0-41.1,27.6-76.1,66.7-85.9l9,71.2c0,0,0,0.1,0,0.1c0.1,0.7,0.2,1.4,0.4,2c0,0.1,0.1,0.2,0.1,0.4
				c0.2,0.6,0.3,1.3,0.5,1.9c0,0.1,0.1,0.2,0.1,0.4c0.2,0.6,0.5,1.3,0.7,1.9c0,0,0,0,0,0.1c0.3,0.6,0.6,1.2,0.9,1.8
				c0.1,0.1,0.1,0.2,0.2,0.3c0.3,0.6,0.7,1.1,1,1.6c0.1,0.1,0.2,0.2,0.2,0.3c0.4,0.5,0.8,1.1,1.2,1.6c0,0,0,0.1,0.1,0.1
				c0.4,0.5,0.8,1,1.3,1.4c0.1,0.1,0.2,0.2,0.3,0.3c0.4,0.5,0.9,0.9,1.4,1.3c0.1,0.1,0.2,0.2,0.3,0.3c0.5,0.4,1,0.8,1.5,1.2
				c0,0,0.1,0,0.1,0.1c0.3,0.2,0.6,0.4,1,0.7h-25.1c-4.3,0-7.8,3.5-7.8,7.8c0,4.3,3.5,7.8,7.8,7.8h157.1c0.9,0,1.7-0.2,2.5-0.4
				c0.8,0.3,1.6,0.4,2.5,0.4c0.4,0,0.7,0.3,0.7,0.7v9c0,0.4-0.3,0.7-0.7,0.7h-12.8h-16.7H167.1L150.4,145.3L150.4,145.3z
				 M175.8,214.8c-0.1-0.7-0.2-1.4-0.3-2.1c0-0.2-0.1-0.4-0.1-0.6c-0.1-0.7-0.2-1.3-0.2-1.9c0-0.3-0.1-0.6-0.1-1
				c0-0.5-0.1-1-0.1-1.5c0-0.9-0.1-1.7-0.1-2.5v-5v-39.2h24.6c-1.1,1.3-1.7,3-1.7,4.9v6.3c0,0.3,0,0.6,0.1,0.9v6.2
				c0,4.3,3.5,7.8,7.8,7.8s7.8-3.5,7.8-7.8V173c0-0.3,0-0.6-0.1-0.9v-6.2c0-1.9-0.7-3.6-1.7-4.9h88.6c-1.1,1.3-1.7,3-1.7,4.9v6.3
				c0,0.3,0,0.6,0.1,0.9v6.2c0,4.3,3.5,7.8,7.8,7.8s7.8-3.5,7.8-7.8V173c0-0.3,0-0.6-0.1-0.9v-6.2c0-1.9-0.7-3.6-1.7-4.9h24.8v39.2
				v4.8c0,0.9,0,1.7-0.1,2.6c0,0.5-0.1,1.1-0.1,1.6c0,0.3,0,0.6-0.1,0.9c-0.1,0.7-0.2,1.4-0.3,2c0,0.2,0,0.3-0.1,0.5
				c-0.1,0.7-0.2,1.4-0.4,2.1c-4.3,22.9-22.5,47.3-43.4,58.8c-0.1,0.1-0.3,0.2-0.4,0.2c-0.7,0.4-1.4,0.7-2,1.1
				c-0.2,0.1-0.4,0.2-0.6,0.3c-0.8,0.4-1.6,0.8-2.4,1.1c0,0-0.1,0-0.1,0c-0.8,0.4-1.6,0.7-2.4,1c-0.2,0.1-0.5,0.2-0.7,0.3
				c-0.6,0.2-1.2,0.4-1.8,0.6c-0.2,0.1-0.5,0.2-0.7,0.2c-0.8,0.2-1.6,0.5-2.5,0.7l-1,0.2c-3.4,0.8-6.4,1.5-9.2,2.1
				c-5,1-9.3,1.6-13.3,1.6c-3.9,0-7.8-0.5-12.6-1.5c-3-0.6-6.3-1.4-10.1-2.3c-0.8-0.2-1.6-0.4-2.5-0.7c-0.2-0.1-0.5-0.2-0.7-0.2
				c-0.6-0.2-1.3-0.4-1.9-0.6c-0.2-0.1-0.4-0.2-0.6-0.2c-1.7-0.6-3.4-1.4-5-2.2c-0.1-0.1-0.3-0.1-0.4-0.2c-0.8-0.4-1.6-0.8-2.4-1.3
				c0,0,0,0-0.1,0C198.3,262.2,180,237.7,175.8,214.8z M208.7,311c1.8-1,3.2-2.7,3.8-4.7l4.7-16.1c0.1,0,0.2,0.1,0.3,0.1
				c0.7,0.3,1.5,0.6,2.2,0.9c0.4,0.2,0.8,0.3,1.2,0.5c0.6,0.2,1.2,0.5,1.8,0.7c0.6,0.2,1.2,0.4,1.8,0.6c0.4,0.1,0.9,0.3,1.3,0.4
				c1.1,0.3,2.1,0.6,3.2,0.9c5.3,1.3,9.8,2.4,14.1,3.1c4.3,0.8,8.3,1.2,12.3,1.2c0.1,0,0.1,0,0.2,0c0,0,0,0,0,0
				c7.8,0,15.5-1.5,26.2-4.2l0.5-0.1l0.5-0.1c1.1-0.3,2.1-0.6,3.2-0.9c0.5-0.1,0.9-0.3,1.4-0.5c0.6-0.2,1.1-0.4,1.7-0.6
				c0.7-0.2,1.3-0.5,2-0.7c0.3-0.1,0.7-0.3,1-0.4c0.8-0.3,1.6-0.7,2.4-1c0.1,0,0.2-0.1,0.2-0.1l4.8,16.3c0.6,2,2,3.7,3.8,4.7
				l17.1,9.2C301.5,333,279,339.9,256,339.9s-45.5-6.9-64.4-19.7L208.7,311z M142.9,329l26-6.8c24,21.5,54.7,33.3,87.1,33.3
				c32.4,0,63.1-11.8,87.1-33.3l26,6.8v35.4c0,21.9-14.7,41.5-35.7,47.6l-1.5,0.4c-50.3,14.7-103.4,14.6-153.6-0.3
				c-20.9-6.2-35.5-25.7-35.5-47.5L142.9,329L142.9,329z M352.9,496.4H159.1v-29.2h193.9L352.9,496.4L352.9,496.4z M408.7,496.4
				h-40.2v-37c0-4.3-3.5-7.8-7.8-7.8H151.3c-4.3,0-7.8,3.5-7.8,7.8v37h-40.2v-52.5c0-4.3-3.5-7.8-7.8-7.8s-7.8,3.5-7.8,7.8v52.5H24
				c-1.7,0-3.3-0.7-4.5-2c-1.2-1.3-1.7-2.9-1.6-4.6l7.4-85c2.4-27.7,21.7-50.9,48.1-57.8l14.2-3.7v71.5c0,4.3,3.5,7.8,7.8,7.8
				s7.8-3.5,7.8-7.8v-75.6l24-6.3v31.5c0,28.7,19.2,54.4,46.7,62.5c53.1,15.7,109.3,15.8,162.4,0.3l1.5-0.4
				c27.6-8.1,46.9-33.8,46.9-62.6V333l24,6.3L408.7,496.4L408.7,496.4z M492.5,494.4c-1.2,1.3-2.7,2-4.5,2h-63.7v-153l14.2,3.7
				c26.4,6.9,45.7,30.1,48.1,57.8l7.4,85C494.2,491.5,493.6,493.2,492.5,494.4z"/>
			<path class="st0" d="M256,269c19.8,0,37.2-11.9,44.4-30.3c1.4-3.7,1-7.8-1.3-11.1c-2.2-3.3-6-5.3-9.9-5.3h-66.4
				c-4,0-7.7,2-9.9,5.3c-2.2,3.3-2.7,7.4-1.3,11.1C218.8,257.1,236.2,269,256,269z M283.4,238c-5.8,9.5-16,15.4-27.4,15.4
				s-21.7-5.9-27.4-15.4L283.4,238L283.4,238z"/>
		</g>
	</g>
</g>
</svg>
