<?xml version="1.0" encoding="utf-8"?>
<!-- Generator: Adobe Illustrator 21.0.2, SVG Export Plug-In . SVG Version: 6.00 Build 0)  -->
<svg version="1.1" id="Capa_1" xmlns="http://www.w3.org/2000/svg" xmlns:xlink="http://www.w3.org/1999/xlink" x="0px" y="0px"
	 viewBox="0 0 438.3 438.3" style="enable-background:new 0 0 438.3 438.3;" xml:space="preserve">
<style type="text/css">
	.st0{fill:#FFFFFF;}
</style>
<g>
	<path class="st0" d="M413.4,314.5l-5.8-266.5c1.7-0.6,3-2.3,3-4.2c0-2-1.3-3.7-3.1-4.3l-0.2-10c-0.1-2.4-2.1-4.4-4.5-4.4h-22.4
		c-2.4,0-4.4,2-4.5,4.4l-0.2,10c-1.8,0.6-3.1,2.3-3.1,4.3c0,1.9,1.2,3.6,3,4.2l-5.8,266.5h-24.1v19.1h-49.5
		c-8.9-41.7-13.6-84.3-13.9-127h2c2.5,0,4.5-2,4.5-4.5s-2-4.5-4.5-4.5h-2H172.4h-1.9c-2.5,0-4.5,2-4.5,4.5s2,4.5,4.5,4.5h1.9
		c-0.2,27.7-2.2,55.7-6.1,83.2c-1.1,8-2.4,16-3.9,23.9c-7.2-38.4-11-77.5-11.3-116.6h2c2.5,0,4.5-2,4.5-4.5s-2-4.5-4.5-4.5H34.8
		c-2.5,0-4.5,2-4.5,4.5s2,4.5,4.5,4.5h2c-0.4,60-9,119.6-25.6,177.2L0,413.1h438.3v-98.6H413.4z M383.6,87.7h15.9l0.7,30.4h-17.2
		L383.6,87.7z M382.7,127.1h17.6l0.7,30.4h-18.9L382.7,127.1z M399.3,78.7h-15.5l0.7-30.4h14.2L399.3,78.7z M381.9,166.5h19.3
		l0.7,30.4h-20.6L381.9,166.5z M381,205.9h21l0.7,30.4h-22.3L381,205.9z M380.2,245.3h22.7l0.7,30.4h-24L380.2,245.3z M398.4,34.2
		l0.1,5.2h-13.8l0.1-5.2H398.4z M379.3,284.6h24.4l0.6,29.9h-25.7L379.3,284.6z M273.6,226.6H181c0.1-1.5,0.1-3.1,0.1-4.6h92.3
		C273.5,223.5,273.5,225,273.6,226.6z M249.7,213v-6.3h8.9v6.3H249.7z M240.7,213h-8.9v-6.3h8.9V213z M222.8,213h-8.9v-6.3h8.9V213z
		 M204.9,213h-8.9v-6.3h8.9V213z M273.2,213h-5.6v-6.3h5.5C273.1,208.8,273.2,210.9,273.2,213z M186.9,206.7v6.3h-5.6
		c0-2.1,0.1-4.2,0.1-6.3H186.9z M142.7,218.8H45.3c0.1-1.9,0.1-3.8,0.2-5.7h97C142.5,215,142.6,216.9,142.7,218.8z M127,204.1h-9.8
		v-7h9.8V204.1z M136,197.1h6.2c0,2.3,0.1,4.7,0.1,7H136L136,197.1L136,197.1z M79.7,204.1v-7h9.8v7H79.7z M98.5,197.1h9.8v7h-9.8
		V197.1z M70.7,197.1v7H61v-7H70.7z M52,197.1v7h-6.3c0-2.3,0.1-4.7,0.1-7H52z M12,404.1l7.9-27.3c14-48.6,22.4-98.6,25.1-149h98.2
		c2.7,50.4,11,100.4,25.1,149l7.9,27.3H12z M185.4,404.1l-8.6-29.8c-3.6-12.5-6.8-25.2-9.7-37.9c3.2-14.9,6-30.2,8.1-45.3
		c2.6-18.4,4.4-36.9,5.3-55.5H274c2.5,48.3,10.6,96.1,24,142.7l7.4,25.8L185.4,404.1L185.4,404.1z M429.3,404.1H314.8l-8.2-28.3
		c-3.2-11-6-22-8.6-33.1h56.5v-19.1h74.7L429.3,404.1L429.3,404.1z"/>
	<rect x="364" y="370.9" class="st0" width="9" height="17.7"/>
	<rect x="341.3" y="370.9" class="st0" width="9" height="17.7"/>
	<rect x="318.6" y="370.9" class="st0" width="9" height="17.7"/>
	<rect x="386.7" y="370.9" class="st0" width="9" height="17.7"/>
	<rect x="409.4" y="370.9" class="st0" width="9" height="17.7"/>
	<rect x="364" y="331.8" class="st0" width="9" height="24.9"/>
	<rect x="386.7" y="331.8" class="st0" width="9" height="24.9"/>
	<rect x="409.4" y="331.8" class="st0" width="9" height="24.9"/>
</g>
</svg>
